# xmcd CD database file
#
# Track frame offsets:
#	150
#	8817
#	24065
#	33630
#	38005
#	47247
#	56337
#	68227
#	75190
#	87305
#	92750
#	101917
#	105257
#	115550
#	124490
#	134215
#	145525
#	148522
#	156545
#	167567
#	176937
#	182567
#	192515
#	199892
#	209247
#	217450
#	227522
#	233077
#	241685
#	251685
#	257972
#
# Disc length: 3486 seconds
#
# Revision: 0
# Processed by: cddbd v1.5.1PL0 Copyright (c) Steve Scherf et al.
# Submitted via: CDex 1.51
#
DISCID=c00d9c1f
DTITLE=Verschiedene - Volksmusik aus dem Fränkischen Freilandmuseum Bad Windsheiml
DYEAR=1996
DGENRE=Volksmusik
TTITLE0=Ja, wir wollen vergnügt sein - Bad Windsheimer Sänger
TTITLE1=Bauramadla, wasch di, kämm di, putz di - Bad Windsheimer Sänger
TTITLE2=Mir sen vier Windsemer - Bad Windsheimer Sänger
TTITLE3=Mei Schatz des is a Windsemer - Bad Windsheimer Sänger
TTITLE4=Der kla Flickschusterbu - Bad Windsheimer Sänger
TTITLE5=Perlmutterköpfli (Rheinländer) - Aischgrundklinger
TTITLE6=Feuerwehr-Schottisch - Aischgrundklinger
TTITLE7=Dreher Nr. 20 - Aischgrundklinger
TTITLE8=Der fröhliche Bauer - Bad Windsheimer Sänger
TTITLE9=Die Zufriedenheit - Bad Windsheimer Sänger
TTITLE10=Wenn ich gleich ein Schäfer bin - Bad Windsheimer Sänger
TTITLE11=Burgthanner Hirtenruf - Georg Egermeier (Langhorn)
TTITLE12=Trompeten-Schottisch - Aischgrundklinger
TTITLE13=Walzer - Aischgrundklinger
TTITLE14=Schäfertanz (Dreher) - Aischgrundklinger
TTITLE15=Pfeif auf, der Baur will tanzen - Bad Windsheimer Sänger
TTITLE16=Leinburger Hirtenruf - Georg Egermeier (Langhorn)
TTITLE17=Es fuhr ein Baur gen Holz - Bad Windsheimer Sänger
TTITLE18=as Kunnala (Schottisch) - Aischgrundklinger
TTITLE19=Walzer - Aischgrundklinger
TTITLE20=Du fährst mer nit iber mei Äckerla - Bad Windsheimer Sänger
TTITLE21=Mein Handwerk fällt mir schwer - Bad Windsheimer Sänger
TTITLE22=Sage an mein liebes Kind - Bad Windsheimer Sänger
TTITLE23=Brautlied - Bad Windsheimer Sänger
TTITLE24=Remmala (Rheinländer) - Aischgrundklinger
TTITLE25=Automobil-Schottisch - Aischgrundklinger
TTITLE26=Dudlsackstückla - Bad Windsheimer Sänger
TTITLE27=In Feuers Hitze - Bad Windsheimer Sänger
TTITLE28=Ich spring an diesem Ringe - Bad Windsheimer Sänger
TTITLE29=96, 97, 98 . - Bad Windsheimer Sänger
TTITLE30=Ham soll i geh, da soll i bleibm - Bad Windsheimer Sänger
EXTD=YEAR: 1996
EXTT0=
EXTT1=
EXTT2=
EXTT3=
EXTT4=
EXTT5=
EXTT6=
EXTT7=
EXTT8=
EXTT9=
EXTT10=
EXTT11=
EXTT12=
EXTT13=
EXTT14=
EXTT15=
EXTT16=
EXTT17=
EXTT18=
EXTT19=
EXTT20=
EXTT21=
EXTT22=
EXTT23=
EXTT24=
EXTT25=
EXTT26=
EXTT27=
EXTT28=
EXTT29=
EXTT30=
PLAYORDER=
